<svg xmlns="http://www.w3.org/2000/svg" width="24" height="24" fill="none" viewBox="0 0 24 24"><rect width="12.923" height="14.769" x="6.769" y="4.615" stroke="#000" stroke-width="1.5" rx="4"/><path stroke="#000" stroke-width="1.5" d="M8.6153 5.53848V2.92309C8.6153 1.81853 9.51073 0.923096 10.6153 0.923096H15.8461C16.9506 0.923096 17.8461 1.81853 17.8461 2.9231V5.53848"/><path stroke="#000" stroke-width="1.5" d="M17.8461 18.4615V21.0769C17.8461 22.1815 16.9506 23.0769 15.8461 23.0769H10.6153C9.51073 23.0769 8.6153 22.1815 8.6153 21.0769V18.9231"/><path stroke="#000" stroke-width="1.5" d="M3.99991 12C3.99991 10.9804 4.82646 10.1538 5.84606 10.1538H6.76914V13.8461H5.84606C4.82646 13.8461 3.99991 13.0196 3.99991 12V12Z"/><path stroke="#000" stroke-width="1.5" d="M8.6153 12.0001H9.53837L11.3845 9.23083L12.3076 13.8462L14.1538 11.077L15.0768 12.9231L15.9999 12.0001H17.8461"/></svg>